<svg class="ldi-83h586" width="298px"  height="298px"  xmlns="http://www.w3.org/2000/svg" xmlns:xlink="http://www.w3.org/1999/xlink" viewBox="0 0 100 100" preserveAspectRatio="xMidYMid" style="background: none;"><!--?xml version="1.0" encoding="utf-8"?--><!--Generator: Adobe Illustrator 21.0.0, SVG Export Plug-In . SVG Version: 6.00 Build 0)--><svg version="1.1" id="圖層_1" xmlns="http://www.w3.org/2000/svg" xmlns:xlink="http://www.w3.org/1999/xlink" x="0px" y="0px" viewBox="0 0 100 100" style="transform-origin: 50px 50px 0px;" xml:space="preserve"><g style="transform-origin: 50px 50px 0px;"><g style="transform-origin: 50px 50px 0px; transform: scale(0.6);"><g style="transform-origin: 50px 50px 0px;"><g><style type="text/css" style="transform-origin: 50px 50px 0px; animation-duration: 1.2s; animation-delay: -1.2s; animation-direction: normal;" class="ld ld-tick">.st0{fill:#333333;} .st1{fill:#F8B26A;} .st2{fill:#F5E6C8;} .st3{fill:#D77D7D;} .st4{fill:none;stroke:#333333;stroke-width:6;stroke-miterlimit:10;} .st5{fill:#E15B64;} .st6{fill:#F47E60;} .st7{fill:#FFFFFF;} .st8{fill:#F8B26A;stroke:#333333;stroke-width:4;stroke-miterlimit:10;} .st9{fill:#666666;} .st10{fill:#E0E0E0;}</style><g style="transform-origin: 50px 50px 0px; animation-duration: 1.2s; animation-delay: -1.1s; animation-direction: normal;" class="ld ld-tick"><path class="st0" d="M78.849,41.364c-0.408-1.361-0.912-2.679-1.501-3.951l8.231-5.914c-1.532-2.93-3.412-5.646-5.592-8.093 l-8.448,5.599c-0.986-1.006-2.042-1.941-3.161-2.801l4.54-9.063c-2.682-1.865-5.601-3.41-8.706-4.58l-4.88,8.886 c-1.33-0.429-2.701-0.765-4.104-1.006l-0.191-10.13C53.423,10.114,51.784,10,50.117,10s-3.306,0.114-4.919,0.312l-0.191,10.13 c-1.404,0.241-2.774,0.577-4.104,1.006l-4.88-8.886c-3.105,1.17-6.024,2.715-8.706,4.58l4.54,9.063 c-1.119,0.86-2.175,1.795-3.161,2.801l-8.448-5.599c-2.18,2.447-4.061,5.163-5.592,8.093l8.231,5.914 c-0.589,1.272-1.093,2.59-1.501,3.951L11.3,40.332c-0.769,3.097-1.183,6.333-1.183,9.668c0,0.033,0.002,0.065,0.003,0.098 l10.036,1.411c0.071,1.427,0.247,2.827,0.51,4.195l-9.409,3.773c0.787,3.238,1.966,6.322,3.488,9.198l9.545-3.415 c0.72,1.216,1.524,2.376,2.403,3.474l-6.575,7.711c2.174,2.464,4.644,4.66,7.359,6.528l6.863-7.458 c1.194,0.74,2.444,1.396,3.741,1.965l-2.24,9.887c3.026,1.157,6.226,1.955,9.553,2.346l2.612-9.795 c0.698,0.049,1.4,0.082,2.111,0.082s1.413-0.034,2.111-0.082l2.612,9.795c3.327-0.392,6.528-1.19,9.553-2.346l-2.24-9.887 c1.297-0.569,2.547-1.226,3.741-1.965l6.863,7.458c2.715-1.868,5.185-4.064,7.359-6.528l-6.575-7.711 c0.879-1.098,1.683-2.258,2.403-3.474l9.546,3.415c1.522-2.876,2.701-5.96,3.488-9.198l-9.409-3.773 c0.264-1.368,0.44-2.767,0.51-4.195l10.036-1.411c0-0.033,0.002-0.065,0.002-0.098c0-3.334-0.415-6.571-1.183-9.668L78.849,41.364z M50,70c-11.046,0-20-8.954-20-20c0-11.046,8.954-20,20-20s20,8.954,20,20C70,61.046,61.046,70,50,70z" fill="#1d3f72" style="fill: rgb(29, 63, 114);"></path></g><g style="transform-origin: 50px 50px 0px; animation-duration: 1.2s; animation-delay: -1s; animation-direction: normal;" class="ld ld-tick"><path class="st1" d="M60.678,60.884c3.567-3.567,4.981-8.46,4.268-13.09c-0.091-0.589-0.822-0.821-1.243-0.4l-9.189,9.188 c-0.609,0.609-1.497,0.847-2.329,0.624l-6.049-1.621c-0.832-0.223-1.482-0.873-1.705-1.705l-1.621-6.049 c-0.223-0.832,0.015-1.72,0.624-2.329l9.188-9.188c0.423-0.423,0.188-1.154-0.403-1.245c-5.023-0.771-10.353,0.959-13.965,5.224 c-4.063,4.798-4.622,11.62-1.764,17.001L11.626,78.386c-2.926,2.733-3.005,7.346-0.174,10.177s7.445,2.752,10.177-0.174 l21.089-24.86C48.485,66.619,55.813,65.749,60.678,60.884z M14.314,85.702c-1.301-1.301-1.301-3.412,0-4.713s3.412-1.301,4.713,0 s1.301,3.412,0,4.713S15.616,87.004,14.314,85.702z" fill="#5699d2" style="fill: rgb(86, 153, 210);"></path></g><metadata xmlns:d="https://loading.io/stock/" style="transform-origin: 50px 50px 0px; animation-duration: 1.2s; animation-delay: -0.9s; animation-direction: normal;" class="ld ld-tick">
<d:name style="transform-origin: 50px 50px 0px; animation-duration: 1.2s; animation-delay: -0.8s; animation-direction: normal;" class="ld ld-tick">wrench</d:name>
<d:tags style="transform-origin: 50px 50px 0px; animation-duration: 1.2s; animation-delay: -0.7s; animation-direction: normal;" class="ld ld-tick">config,setting,machinary,profile,setup,edit,asembly,wrench,gear</d:tags>
<d:license style="transform-origin: 50px 50px 0px; animation-duration: 1.2s; animation-delay: -0.6s; animation-direction: normal;" class="ld ld-tick">cc-by</d:license>
<d:slug style="transform-origin: 50px 50px 0px; animation-duration: 1.2s; animation-delay: -0.5s; animation-direction: normal;" class="ld ld-tick">83h586</d:slug>
</metadata></g></g></g></g><style type="text/css" style="transform-origin: 50px 50px 0px; animation-duration: 1.2s; animation-delay: -0.4s; animation-direction: normal;" class="ld ld-tick">@keyframes ld-tick {
  0% {
    -webkit-transform: rotate(0);
    transform: rotate(0);
  }
  20% {
    -webkit-transform: rotate(-30deg);
    transform: rotate(-30deg);
  }
  30% {
    -webkit-transform: rotate(30deg);
    transform: rotate(30deg);
  }
  40% {
    -webkit-transform: rotate(-21deg);
    transform: rotate(-21deg);
  }
  50% {
    -webkit-transform: rotate(15deg);
    transform: rotate(15deg);
  }
  60% {
    -webkit-transform: rotate(-10deg);
    transform: rotate(-10deg);
  }
  70% {
    -webkit-transform: rotate(6deg);
    transform: rotate(6deg);
  }
  80% {
    -webkit-transform: rotate(-2deg);
    transform: rotate(-2deg);
  }
  90% {
    -webkit-transform: rotate(1deg);
    transform: rotate(1deg);
  }
  100% {
    -webkit-transform: rotate(0deg);
    transform: rotate(0deg);
  }
}
@-webkit-keyframes ld-tick {
  0% {
    -webkit-transform: rotate(0);
    transform: rotate(0);
  }
  20% {
    -webkit-transform: rotate(-30deg);
    transform: rotate(-30deg);
  }
  30% {
    -webkit-transform: rotate(30deg);
    transform: rotate(30deg);
  }
  40% {
    -webkit-transform: rotate(-21deg);
    transform: rotate(-21deg);
  }
  50% {
    -webkit-transform: rotate(15deg);
    transform: rotate(15deg);
  }
  60% {
    -webkit-transform: rotate(-10deg);
    transform: rotate(-10deg);
  }
  70% {
    -webkit-transform: rotate(6deg);
    transform: rotate(6deg);
  }
  80% {
    -webkit-transform: rotate(-2deg);
    transform: rotate(-2deg);
  }
  90% {
    -webkit-transform: rotate(1deg);
    transform: rotate(1deg);
  }
  100% {
    -webkit-transform: rotate(0deg);
    transform: rotate(0deg);
  }
}
.ld.ld-tick {
  -webkit-animation: ld-tick 1s ease-out infinite;
  animation: ld-tick 1s ease-out infinite;
}
</style></svg></svg>